<?xml version="1.0" encoding="UTF-8"?>
<svg width="52px" height="52px" viewBox="0 0 52 52" version="1.1" xmlns="http://www.w3.org/2000/svg" xmlns:xlink="http://www.w3.org/1999/xlink">
    <title>next</title>
    <defs>
        <path d="M16.3541667,18.0208333 C16.7708333,18.4375 16.7708333,19.0625 16.3541667,19.4791667 C16.1458333,19.6875 15.9375,19.7916667 15.625,19.7916667 C15.3125,19.7916667 15.1041667,19.6875 14.8958333,19.4791667 L8.64583333,13.2291667 C8.22916667,12.8125 8.22916667,12.1875 8.64583333,11.7708333 L14.8958333,5.52083333 C15.3125,5.10416667 15.9375,5.10416667 16.3541667,5.52083333 C16.7708333,5.9375 16.7708333,6.5625 16.3541667,6.97916667 L10.8333333,12.5 L16.3541667,18.0208333 Z" id="path-1"></path>
    </defs>
    <g id="Symbols" stroke="none" stroke-width="1" fill="none" fill-rule="evenodd">
        <g id="next" transform="translate(26.000000, 26.000000) scale(-1, 1) translate(-26.000000, -26.000000) translate(1.000000, 1.000000)">
            <circle id="Oval" stroke="#EA0029" cx="25" cy="25" r="25"  shape-rendering="geometricPrecision"></circle>
            <g id="icon-/-chevron-left" transform="translate(12.500000, 12.500000)">
                <mask id="mask-2" fill="white">
                    <use xlink:href="#path-1"></use>
                </mask>
                <use id="Mask" fill="#EA0029" fill-rule="nonzero" xlink:href="#path-1"></use>
                <g id="Group" mask="url(#mask-2)" fill="#EA0029">
                    <g id="Icon-Color">
                        <rect id="Shape" x="0" y="0" width="25" height="25"></rect>
                    </g>
                </g>
            </g>
        </g>
    </g>
</svg>