<?xml version="1.0" encoding="UTF-8"?>
<svg width="19px" height="25px" viewBox="0 0 19 25" version="1.1" xmlns="http://www.w3.org/2000/svg" xmlns:xlink="http://www.w3.org/1999/xlink">
    <title>Group 11</title>
    <g id="Mobile" stroke="none" stroke-width="1" fill="none" fill-rule="evenodd" stroke-linecap="round" stroke-linejoin="round">
        <g id="Cart" transform="translate(-342.000000, -202.000000)" stroke="#151515" stroke-width="1.2">
            <g id="Content" transform="translate(0.000000, 129.000000)">
                <g id="articolo-01" transform="translate(15.000000, 74.000000)">
                    <g id="Group-11" transform="translate(328.000000, 0.000000)">
                        <path d="M14.8536701,23 L2.21084607,23 C1.80919233,23 1.48387097,22.6718292 1.48387097,22.2666574 L1.48387097,5.93548387 L15.5806452,5.93548387 L15.5806452,22.2666574 C15.5806452,22.6718292 15.2553238,23 14.8536701,23 Z" id="Stroke-1"></path>
                        <path d="M17.0645161,5.93548387 L0,5.93548387 L0,3.73301835 C0,3.31020313 0.328537494,2.96774194 0.733342621,2.96774194 L16.3311735,2.96774194 C16.7363453,2.96774194 17.0645161,3.31020313 17.0645161,3.73301835 L17.0645161,5.93548387 Z" id="Stroke-3"></path>
                        <path d="M12.6129032,2.96774194 L4.4516129,2.96774194 C4.4516129,1.32851986 5.66937043,0 7.1719261,0 L9.89259003,0 C11.394795,0 12.6129032,1.32851986 12.6129032,2.96774194 Z" id="Stroke-5"></path>
                        <line x1="5.9483871" y1="8.16129032" x2="5.9483871" y2="20.0322581" id="Stroke-7"></line>
                        <line x1="10.4" y1="8.16129032" x2="10.4" y2="20.0322581" id="Stroke-9"></line>
                    </g>
                </g>
            </g>
        </g>
    </g>
</svg>