<?xml version="1.0" encoding="UTF-8"?>
<svg width="20px" height="20px" viewBox="0 0 20 20" version="1.1" xmlns="http://www.w3.org/2000/svg" xmlns:xlink="http://www.w3.org/1999/xlink">
    <title>3. icon / confezionamento</title>
    <g id="Mobile" stroke="none" stroke-width="1" fill="none" fill-rule="evenodd">
        <g id="product" transform="translate(-29.000000, -1107.000000)">
            <g id="Content" transform="translate(0.000000, 489.000000)">
                <g id="section-/-confezionamento" transform="translate(15.000000, 589.000000)">
                    <g id="3.-icon-/-confezionamento" transform="translate(15.000000, 30.000000)">
                        <polygon id="Stroke-1" stroke="#151515" stroke-linecap="round" stroke-linejoin="round" points="8.96754065 4.10361392 15.5823317 7.41100945 8.96754065 10.718405 2.3527496 7.41100945"></polygon>
                        <polygon id="Stroke-2" stroke="#151515" stroke-linecap="round" stroke-linejoin="round" points="8.96754065 10.7183552 2.3527496 7.41095968 2.3527496 14.7675011 8.96754065 18 15.5823317 14.7675011 15.5823317 7.41095968"></polygon>
                        <line x1="8.96754065" y1="16.6406883" x2="8.96754065" y2="12.7863732" id="Stroke-4" stroke="#151515" stroke-linecap="round" stroke-linejoin="round"></line>
                        <polygon id="Fill-5" fill="#FFFFFF" points="0 10.0193283 2.35289889 7.41088503 8.96744111 10.7182806 6.61479105 13.3267238"></polygon>
                        <polygon id="Stroke-6" stroke="#151515" stroke-linecap="round" stroke-linejoin="round" points="0 10.0193283 2.35289889 7.41088503 8.96744111 10.7182806 6.61479105 13.3267238"></polygon>
                        <polygon id="Fill-8" fill="#FFFFFF" points="17.9350066 10.0193283 15.5823566 7.41088503 8.96756553 10.7182806 11.3202156 13.3267238"></polygon>
                        <g id="Group-13" transform="translate(0.000000, 7.410885)" stroke="#151515" stroke-linecap="round" stroke-linejoin="round">
                            <polygon id="Stroke-9" points="17.9350066 2.60844322 15.5823566 0 8.96756553 3.30739552 11.3202156 5.91583874"></polygon>
                            <polygon id="Stroke-11" points="0 2.60844322 2.35289889 0 8.96744111 3.30739552 6.61479105 5.91583874"></polygon>
                        </g>
                        <polygon id="Stroke-14" stroke="#151515" stroke-linecap="round" stroke-linejoin="round" points="17.9350066 10.0193283 15.5823566 7.41088503 8.96756553 10.7182806 11.3202156 13.3267238"></polygon>
                        <polygon id="Fill-15" fill="#FFFFFF" points="10.5775943 3.53556899 10.5775943 3.55271368e-15 7.35753673 3.55271368e-15 7.35753673 3.53556899 5.050173 3.53556899 8.96744111 8.67233345 12.8849581 3.53556899"></polygon>
                        <polygon id="Stroke-16" stroke="#151515" stroke-linecap="round" stroke-linejoin="round" points="10.5775943 3.53556899 10.5775943 3.55271368e-15 7.35753673 3.55271368e-15 7.35753673 3.53556899 5.050173 3.53556899 8.96744111 8.67233345 12.8849581 3.53556899"></polygon>
                        <polygon id="Fill-18" fill="#FFFFFF" points="10.5775943 3.53556899 10.5775943 3.55271368e-15 7.35753673 3.55271368e-15 7.35753673 3.53556899 5.050173 3.53556899 8.96744111 8.67233345 12.8849581 3.53556899"></polygon>
                        <polygon id="Stroke-19" stroke="#151515" stroke-linecap="round" stroke-linejoin="round" points="10.5775943 3.53556899 10.5775943 3.55271368e-15 7.35753673 3.55271368e-15 7.35753673 3.53556899 5.050173 3.53556899 8.96744111 8.67233345 12.8849581 3.53556899"></polygon>
                    </g>
                </g>
            </g>
        </g>
    </g>
</svg>