<?xml version="1.0" encoding="UTF-8"?>
<svg width="28px" height="17px" viewBox="0 0 28 17" version="1.1" xmlns="http://www.w3.org/2000/svg" xmlns:xlink="http://www.w3.org/1999/xlink">
    <title>3. icon / spedizione</title>
    <g id="Mobile" stroke="none" stroke-width="1" fill="none" fill-rule="evenodd" stroke-linecap="round" stroke-linejoin="round">
        <g id="Dashboard-/-aiuto" transform="translate(-14.000000, -151.000000)" stroke="#151515">
            <g id="label-aiuto-e-contatti-copy" transform="translate(-1.000000, 146.000000)">
                <g id="3.-icon-/-spedizione" transform="translate(15.500000, 6.000000)">
                    <polyline id="Stroke-1" points="24.3114757 7.40392032 19.6345804 7.40392032 19.6345804 3.82002428"></polyline>
                    <g id="Group-24" transform="translate(0.000000, 0.000000)">
                        <path d="M5.63746854,2.36753616 L5.63746854,0.778835931 C5.63746854,0.348527877 5.98796357,0 6.42070035,0 L16.7345425,0 C17.1670374,0 17.5177743,0.348527877 17.5177743,0.778835931 L17.5177743,11.3058691" id="Stroke-2"></path>
                        <path d="M7.97722238,12.7609549 L6.73924203,12.7609549 C5.98818127,12.7609549 5.63744435,12.4121865 5.63744435,11.982119 L5.63744435,8.67531345" id="Stroke-4"></path>
                        <line x1="19.3883389" y1="12.7609549" x2="12.480515" y2="12.7609549" id="Stroke-6"></line>
                        <path d="M17.5176776,2.10295323 L21.8556884,2.10295323 C22.3283366,2.10295323 22.7760705,2.31437904 23.0748015,2.67878189 L25.3826504,5.49466585 C25.9723722,6.21385036 26.2943245,7.11343231 26.2943245,8.04163734 L26.2943245,11.9822393 C26.2943245,12.4123068 25.9438295,12.7610752 25.5110927,12.7610752 L23.8914138,12.7610752" id="Stroke-8"></path>
                        <path d="M12.4804424,12.7609068 C12.4804424,13.9972307 11.4724971,15 10.2289533,15 C8.9851677,15 7.97722238,13.9972307 7.97722238,12.7609068" id="Stroke-10"></path>
                        <path d="M7.97722238,12.7609068 C7.97722238,11.5241019 8.9851677,10.5220542 10.2289533,10.5220542 C11.472739,10.5220542 12.4804424,11.5241019 12.4804424,12.7609068" id="Stroke-12"></path>
                        <path d="M23.8914864,12.7609068 C23.8914864,13.9972307 22.883783,15 21.6399973,15 C20.3962117,15 19.3882664,13.9972307 19.3882664,12.7609068 C19.3882664,11.5241019 20.3962117,10.5220542 21.6399973,10.5220542 C22.883783,10.5220542 23.8914864,11.5241019 23.8914864,12.7609068" id="Stroke-14"></path>
                        <line x1="3.61318442" y1="8.6753375" x2="7.68270013" y2="8.6753375" id="Stroke-16"></line>
                        <line x1="2.24117419" y1="6.57274507" x2="7.00224633" y2="6.57274507" id="Stroke-18"></line>
                        <line x1="0.869188149" y1="4.47012859" x2="6.32157484" y2="4.47012859" id="Stroke-20"></line>
                        <line x1="-1.42474922e-14" y1="2.37" x2="5.64087916" y2="2.36753616" id="Stroke-22"></line>
                    </g>
                </g>
            </g>
        </g>
    </g>
</svg>