<?xml version="1.0" encoding="UTF-8"?>
<svg width="14px" height="18px" viewBox="0 0 14 18" version="1.1" xmlns="http://www.w3.org/2000/svg" xmlns:xlink="http://www.w3.org/1999/xlink">
    <title>Group 17</title>
    <defs>
        <polygon id="path-1" points="0 0 13.5298934 0 13.5298934 17.9999702 0 17.9999702"></polygon>
        <polygon id="path-3" points="0 18 13.5298934 18 13.5298934 0 0 0"></polygon>
    </defs>
    <g id="Mobile" stroke="none" stroke-width="1" fill="none" fill-rule="evenodd">
        <g id="product" transform="translate(-30.000000, -960.000000)">
            <g id="Content" transform="translate(0.000000, 489.000000)">
                <g id="section-/-confezionamento-copy" transform="translate(15.000000, 441.000000)">
                    <g id="Group-17" transform="translate(15.000000, 30.000000)">
                        <g id="Group-3" transform="translate(0.000000, 0.000030)">
                            <mask id="mask-2" fill="white">
                                <use xlink:href="#path-1"></use>
                            </mask>
                            <g id="Clip-2"></g>
                            <path d="M3.42408576,2.7085807 L3.42408576,0.744852243 L12.7327525,0.744852243 C12.7616528,0.744852243 12.7850908,0.768290261 12.7850908,0.797190528 L12.7850908,17.2028095 C12.7850908,17.2316104 12.7616528,17.2551478 12.7327525,17.2551478 L0.797140871,17.2551478 C0.768339917,17.2551478 0.744802587,17.2316104 0.744802587,17.2028095 L0.744802587,3.42413542 L2.70853104,3.42413542 C3.1031041,3.42413542 3.42408576,3.10315376 3.42408576,2.7085807 M12.7327525,0 L2.97916069,0 L-4.96568162e-05,2.97911103 L-4.96568162e-05,17.2028095 C-4.96568162e-05,17.6423716 0.357578734,18 0.797140871,18 L12.7327525,18 C13.1723147,18 13.5299431,17.6423716 13.5299431,17.2028095 L13.5299431,0.797190528 C13.5299431,0.35762839 13.1723147,0 12.7327525,0" id="Fill-1" fill="#000000" mask="url(#mask-2)"></path>
                        </g>
                        <path d="M5.17420053,2.38976407 L5.74177793,2.38976407 C6.05471519,2.38976407 6.30945466,2.64440423 6.30945466,2.9574408 C6.30945466,3.27037805 6.05471519,3.52501821 5.74177793,3.52501821 L5.17420053,3.52501821 L5.17420053,2.38976407 Z M5.17420053,4.26987045 L5.74177793,4.26987045 C6.46547637,4.26987045 7.0543069,3.68113924 7.0543069,2.9574408 C7.0543069,2.23374236 6.46547637,1.64491183 5.74177793,1.64491183 L4.42934828,1.64491183 L4.42934828,5.76126327 L5.17420053,5.76126327 L5.17420053,4.26987045 Z" id="Fill-4" fill="#000000"></path>
                        <polygon id="Fill-6" fill="#000000" points="10.6108473 3.88824789 11.8335967 3.88824789 11.8335967 3.14339564 10.6108473 3.14339564 10.6108473 2.3898038 12.1162433 2.3898038 12.1162433 1.64495156 9.86599501 1.64495156 9.86599501 5.76130299 10.6108473 5.76130299"></polygon>
                        <path d="M8.53747655,5.01644082 L7.86949306,5.01644082 L7.86949306,2.38979387 L8.53747655,2.38979387 C8.79519543,2.38979387 9.00484651,2.59944495 9.00484651,2.85706451 L9.00484651,4.54917018 C9.00484651,4.80678974 8.79519543,5.01644082 8.53747655,5.01644082 M9.74969875,4.54917018 L9.74969875,2.85706451 C9.74969875,2.18868376 9.2058573,1.64494163 8.53747655,1.64494163 L7.12464082,1.64494163 L7.12464082,5.76129306 L8.53747655,5.76129306 C9.2058573,5.76129306 9.74969875,5.21755093 9.74969875,4.54917018" id="Fill-8" fill="#000000"></path>
                        <polygon id="Fill-10" fill="#000000" points="5.17119132 9.63684867 2.97556554 9.63684867 2.97556554 14.4166152 1.56253117 14.4166152 4.07327912 16.9274624 6.58422568 14.4166152 5.17119132 14.4166152"></polygon>
                        <mask id="mask-4" fill="white">
                            <use xlink:href="#path-3"></use>
                        </mask>
                        <g id="Clip-13"></g>
                        <polygon id="Fill-12" fill="#000000" mask="url(#mask-4)" points="2.8513937 7.42577961 10.678599 7.42577961 10.678599 6.68092737 2.8513937 6.68092737"></polygon>
                        <polygon id="Fill-14" fill="#000000" mask="url(#mask-4)" points="2.8513937 8.84169407 10.678599 8.84169407 10.678599 8.09684183 2.8513937 8.09684183"></polygon>
                        <polygon id="Fill-15" fill="#000000" mask="url(#mask-4)" points="5.83984022 10.2576085 10.678599 10.2576085 10.678599 9.51275628 5.83984022 9.51275628"></polygon>
                        <polygon id="Fill-16" fill="#000000" mask="url(#mask-4)" points="5.83984022 11.6734237 10.678599 11.6734237 10.678599 10.9285714 5.83984022 10.9285714"></polygon>
                    </g>
                </g>
            </g>
        </g>
    </g>
</svg>