<svg xmlns="http://www.w3.org/2000/svg" xmlns:xlink="http://www.w3.org/1999/xlink" width="20" height="14" viewBox="0 0 20 14"><defs><polygon id="a" points="0 0 20 0 20 7 0 7"/><polygon id="c" points="0 0 20 0 20 7 0 7"/></defs><g fill="none" fill-rule="evenodd"><mask id="b" fill="#fff"><use xlink:href="#a"/></mask><path fill="#151515" d="M0,3.50001198 C0,3.92924833 0.319809524,4.27723858 0.714285714,4.27723858 L10.4214286,4.27723858 C10.8110952,6.15734971 12.5276667,7.33774965 14.2555238,6.91374664 C15.4631905,6.61746786 16.4062381,5.59126968 16.6785714,4.27723858 L19.2857143,4.27723858 C19.6802381,4.27723858 20,3.92924833 20,3.50001198 C20,3.07077564 19.6802381,2.72278539 19.2857143,2.72278539 L16.6785714,2.72278539 C16.2888571,0.842674256 14.5723333,-0.337777497 12.8444762,0.0862255185 C11.6368095,0.382607927 10.6937619,1.40875429 10.4214286,2.72278539 L0.714285714,2.72278539 C0.319809524,2.72278539 0,3.07077564 0,3.50001198 M13.5714286,1.5569455 C14.5576667,1.5569455 15.3571429,2.42686932 15.3571429,3.50001198 C15.3571429,4.57315465 14.5576667,5.44307847 13.5714286,5.44307847 C12.5851905,5.44307847 11.7857143,4.57315465 11.7857143,3.50001198 C11.7857143,2.42686932 12.5851905,1.5569455 13.5714286,1.5569455" mask="url(#b)"/><g transform="translate(0 7)"><mask id="d" fill="#fff"><use xlink:href="#c"/></mask><path fill="#151515" d="M0.714285714,4.27721144 L3.32142857,4.27721144 C3.71109524,6.15732119 5.42766667,7.33772025 7.15552381,6.91376936 C8.36319048,6.61738717 9.30619048,5.59124157 9.57857143,4.27721144 L19.2857143,4.27721144 C19.6802381,4.27721144 20,3.92927326 20,3.49998542 C20,3.07069759 19.6802381,2.7227594 19.2857143,2.7227594 L9.57857143,2.7227594 C9.18890476,0.842649663 7.47233333,-0.337749401 5.74447619,0.0862533005 C4.53680952,0.382583674 3.5937619,1.40872928 3.32142857,2.7227594 L0.714285714,2.7227594 C0.319809524,2.7227594 0,3.07069759 0,3.49998542 C0,3.92927326 0.319809524,4.27721144 0.714285714,4.27721144 M6.42857143,1.55692038 C7.4147619,1.55692038 8.21428571,2.42684355 8.21428571,3.49998542 C8.21428571,4.5731273 7.4147619,5.44305047 6.42857143,5.44305047 C5.44238095,5.44305047 4.64285714,4.5731273 4.64285714,3.49998542 C4.64285714,2.42684355 5.44238095,1.55692038 6.42857143,1.55692038" mask="url(#d)"/></g></g></svg>