<?xml version="1.0" encoding="utf-8"?>
<!-- Generator: Adobe Illustrator 26.3.1, SVG Export Plug-In . SVG Version: 6.00 Build 0)  -->
<svg version="1.1" id="Livello_1" xmlns="http://www.w3.org/2000/svg" xmlns:xlink="http://www.w3.org/1999/xlink" x="0px" y="0px"
	 viewBox="0 0 26 26" style="enable-background:new 0 0 26 26;" xml:space="preserve">
<style type="text/css">
	.st0{enable-background:new    ;}
	.st1{fill:#151515;}
	.st2{fill:none;stroke:#151515;}
</style>
<g id="Mobile">
	<g id="Dashboard-_x2F_-aiuto" transform="translate(-16.000000, -14.000000)">
		<g id="_x30_5.-pre-footer" transform="translate(0.000000, 15.000000)">
			<g id="_x30_3.-icon-_x2F_-help" transform="translate(17.000000, 0.000000)">
				<g class="st0">
					<path class="st1" d="M11.4,14.1l-0.1-2.3c1.8-0.1,2.5-1.1,2.5-2c0-1-0.6-1.6-1.8-1.6c-1.1,0-1.8,0.6-1.8,1.9c0,0.1,0,0.2,0,0.3
						H8.6c0-0.1,0-0.3,0-0.4c0-1.6,1-3.1,3.4-3.1c2.2,0,3.4,1.1,3.4,3c0,1.5-0.9,2.6-2.7,3l-0.1,1.3H11.4z M11,16
						c0-0.6,0.4-1.1,1.1-1.1c0.6,0,1.1,0.5,1.1,1.1c0,0.6-0.5,1.1-1.1,1.1C11.4,17.1,11,16.6,11,16z"/>
				</g>
				<circle id="Oval" class="st2" cx="12" cy="12" r="12"/>
			</g>
		</g>
	</g>
</g>
</svg>
