<?xml version="1.0" encoding="UTF-8"?>
<svg width="9px" height="12px" viewBox="0 0 9 12" version="1.1" xmlns="http://www.w3.org/2000/svg" xmlns:xlink="http://www.w3.org/1999/xlink">
    <title>Group 5</title>
    <g id="Desktop" stroke="none" stroke-width="1" fill="none" fill-rule="evenodd" stroke-linecap="round" stroke-linejoin="round">
        <g id="dashboard--/-ordini" transform="translate(-642.000000, -418.000000)" stroke="#FFFFFF" stroke-width="0.75">
            <g id="content" transform="translate(0.000000, 234.000000)">
                <g id="Group-6" transform="translate(109.803279, 111.000000)">
                    <g id="ordine-01-copy-2" transform="translate(532.196721, 2.000000)">
                        <g id="Group-3" transform="translate(1.196721, 68.000000)">
                            <g id="Group-5" transform="translate(0.000000, 3.885246)">
                                <path d="M7.11497799,3.55747003 C7.11497799,1.46301852 5.30507513,-0.208624529 3.16373411,0.0211661724 C1.59261445,0.189936282 0.289824825,1.42897545 0.0446183958,2.99013911 C-0.0905903886,3.85117177 0.0892597759,4.66130042 0.478988659,5.33493563 L0.476579952,5.33622028 L2.97521259,9.66386486 C3.23390779,10.112045 3.88104722,10.112045 4.13990299,9.66386486 L6.63837505,5.33622028 L6.63596635,5.33477505 C6.93882118,4.81144319 7.11497799,4.20557295 7.11497799,3.55747003 Z" id="Stroke-1"></path>
                                <path d="M5.29312794,3.55747003 C5.29312794,4.51597506 4.51607888,5.2931847 3.55741327,5.2931847 C2.59890824,5.2931847 1.82185918,4.51597506 1.82185918,3.55747003 C1.82185918,2.598965 2.59890824,1.82175536 3.55741327,1.82175536" id="Stroke-3"></path>
                            </g>
                        </g>
                    </g>
                </g>
            </g>
        </g>
    </g>
</svg>