<?xml version="1.0" encoding="UTF-8"?>
<svg width="29px" height="27px" viewBox="0 0 29 27" version="1.1" xmlns="http://www.w3.org/2000/svg" xmlns:xlink="http://www.w3.org/1999/xlink">
    <title>Group 2</title>
    <g id="Mobile" stroke="none" stroke-width="1" fill="none" fill-rule="evenodd">
        <g id="Login-/-step-03" transform="translate(-317.000000, -262.000000)" stroke="#151515">
            <g id="Group-3" transform="translate(0.000000, 233.000000)">
                <g id="Group-2" transform="translate(318.000000, 30.000000)">
                    <g id="Group-9" transform="translate(0.000000, 5.000000)" stroke-linecap="round" stroke-linejoin="round">
                        <path d="M26.7516429,7.54071429 C24.0671786,3.03428571 19.0984286,0 13.3946786,0 C7.68878571,0 2.7195,3.03428571 0.0328928571,7.54071429" id="Stroke-1"></path>
                        <path d="M18.75,7.50069643 C18.75,10.4605179 16.3510714,12.8573036 13.395,12.8573036 C10.4346429,12.8573036 8.03571429,10.4605179 8.03571429,7.50069643 C8.03571429,4.54301786 10.4346429,2.14301786 13.395,2.14301786 C16.3510714,2.14301786 18.75,4.54301786 18.75,7.50069643 Z" id="Stroke-3"></path>
                        <path d="M0,7.67892857 C2.69196429,12.0541071 7.67517857,15 13.3944643,15 C19.1116071,15 24.09375,12.0541071 26.7857143,7.67892857" id="Stroke-5"></path>
                        <path d="M15,7.50010714 C15,6.61296429 14.2810714,5.89296429 13.3928571,5.89296429 C12.5057143,5.89296429 11.7857143,6.61296429 11.7857143,7.50010714 C11.7857143,8.38832143 12.5057143,9.10725 13.3928571,9.10725 C14.2810714,9.10725 15,8.38832143 15,7.50010714 Z" id="Stroke-7"></path>
                    </g>
                    <line x1="24.5" y1="0.5" x2="1.5" y2="24.5" id="Line-2" stroke-linecap="square"></line>
                </g>
            </g>
        </g>
    </g>
</svg>