<?xml version="1.0" encoding="UTF-8"?>
<svg width="53px" height="71px" viewBox="0 0 53 71" version="1.1" xmlns="http://www.w3.org/2000/svg" xmlns:xlink="http://www.w3.org/1999/xlink">
    <title>Group 2</title>
    <g id="Mobile" stroke="none" stroke-width="1" fill="none" fill-rule="evenodd">
        <g id="Account-/-indirizzi-/-Empty" transform="translate(-161.000000, -217.000000)" stroke="#000000" stroke-width="1.87">
            <g id="01.-ultimi-ordini" transform="translate(15.000000, 137.000000)">
                <g id="Group-2" transform="translate(147.000000, 81.000000)">
                    <path d="M11,52.6613863 C25.543706,58.9145684 42.405776,52.1959136 48.6606875,37.6534343 C54.9155991,23.1114798 48.1951252,6.25318212 33.6514192,0" id="Stroke-1" stroke-linecap="round" stroke-linejoin="round"></path>
                    <line x1="21.5" y1="55" x2="21.5" y2="63" id="Stroke-3"></line>
                    <line x1="10" y1="62.5" x2="34" y2="62.5" id="Stroke-5" stroke-linecap="round" stroke-linejoin="round"></line>
                    <line x1="4" y1="68.5" x2="41" y2="68.5" id="Stroke-7" stroke-linecap="round" stroke-linejoin="round"></line>
                    <path d="M47,26.5 C47,39.4786356 36.4786356,50 23.5,50 C10.5213644,50 0,39.4786356 0,26.5 C0,13.5213644 10.5213644,3 23.5,3 C36.4786356,3 47,13.5213644 47,26.5 Z" id="Stroke-9"></path>
                    <path d="M46,22.969045 C39.1168746,23.0254226 40.8354169,20 35.9511111,20 C30.0384194,20 29.2439492,29.5178046 34.5297048,29.4919868 C39.5894474,29.4672228 38.0795325,33.0037322 37.2123588,34.9363776 C35.0491661,39.7563996 42.1683145,40.6579144 38.1027134,44" id="Stroke-11"></path>
                    <path d="M30.2599844,5 C32.7965452,5.96917377 31.4810345,9.58529895 29.6542625,10.0046128 C25.1697852,11.03436 26.9020967,18.467129 30.8897218,17.9767981 C33.8190679,17.6170132 34.1718276,13.4828814 37.4240475,15.0687546 C40.6848063,16.6582832 41.7569609,13.2306665 44,16.7204231" id="Stroke-13"></path>
                    <path d="M15.5536321,5 L18.5582968,10.8466874 C19.5476974,12.7330031 18.4429212,15.0136779 16.3073833,15.4945652 L13.0959131,16.218256 C11.4414699,16.5905896 10.2425428,18.1418051 10.6980589,20.1665661 C10.8417343,20.904416 11.5105865,21.4398423 12.2904605,21.4398423 L15.0899526,21.4398423 C16.2279265,21.4398423 17.3196413,21.8751056 18.1240055,22.6507133 L19.0731334,23.5652907 C19.3953145,23.8757435 19.8317827,24.0498489 20.2872988,24.0498489 L20.8609117,24.0498489 C22.5942675,24.0498489 24,25.4038848 24,27.0746666 L24,27.0746666 C24,28.3070386 23.4127815,29.4717612 22.40651,30.2332098 L20.7700262,31.4729235 C20.1751885,31.9233948 19.8279732,32.6119499 19.8279732,33.3408848 C19.8279732,34.1227855 19.5123228,34.8742702 18.948506,35.4359172 L17.7370617,36.6425929 C17.299505,37.078905 16.98712,37.6174778 16.8314717,38.2058699 L15.9993521,41.3429121 C15.5209786,43.146895 12.0227019,43.6838945 12.0227019,41.9119009 L12.0227019,40.615026 L12.0227019,34.9130768 C12.0227019,33.9140689 11.6107238,32.9564896 10.8781973,32.2501045 L10.2463524,31.6417847 C9.44470936,30.8693235 8.9946355,29.8220695 8.9946355,28.7297159 L8.9946355,24.63457 C8.9946355,24.1972091 8.81449711,23.7782026 8.49340451,23.4687986 L6.25174281,21.3087389 C5.55350247,20.6359163 5.01091041,19.8288437 4.658797,18.940487 L3,14.8033881" id="Stroke-15"></path>
                </g>
            </g>
        </g>
    </g>
</svg>