<?xml version="1.0" encoding="UTF-8"?>
<svg width="71px" height="71px" viewBox="0 0 71 71" version="1.1" xmlns="http://www.w3.org/2000/svg" xmlns:xlink="http://www.w3.org/1999/xlink">
    <title>Group 19</title>
    <g id="Mobile" stroke="none" stroke-width="1" fill="none" fill-rule="evenodd" stroke-linecap="round" stroke-linejoin="round">
        <g id="Dashboard" transform="translate(-161.000000, -234.000000)" stroke="#151515">
            <g id="01.-ultimi-ordini" transform="translate(15.000000, 154.000000)">
                <g id="Group-19" transform="translate(147.000000, 81.000000)">
                    <path d="M52.269,36.015 L52.269,67.005 C52.269,67.885 51.555,68.598 50.676,68.598 L1.594,68.598 C0.713,68.598 0,67.885 0,67.005 L0,1.593 C0,0.713 0.713,0 1.594,0 L50.676,0 C51.555,0 52.269,0.713 52.269,1.593 L52.269,22.666" id="Stroke-1" stroke-width="1.87"></path>
                    <polyline id="Stroke-3" stroke-width="1.87" points="18.7242 13.1139 13.0322 21.9879 9.6112 16.6559"></polyline>
                    <line x1="25.0984" y1="17.5509" x2="42.3964" y2="17.5509" id="Stroke-5" stroke-width="1.87"></line>
                    <polyline id="Stroke-7" stroke-width="1.87" points="18.7242 46.6108 13.0322 55.4848 9.6112 50.1528"></polyline>
                    <polyline id="Stroke-9" stroke-width="1.87" points="18.7242 29.8625 13.0322 38.7355 9.6112 33.4045"></polyline>
                    <line x1="25.0984" y1="34.2992" x2="40.6354" y2="34.2992" id="Stroke-11" stroke-width="1.772"></line>
                    <line x1="56.805" y1="18.1304" x2="63.479" y2="24.8044" id="Stroke-13" stroke-width="1.87"></line>
                    <line x1="34.026" y1="46.8781" x2="37.526" y2="50.3781" id="Stroke-15" stroke-width="1.87"></line>
                    <polygon id="Stroke-17" stroke-width="1.87" points="61.8107 13.1243 30.6637 44.2713 30.6637 44.2723 25.7187 55.8923 37.3377 50.9463 68.4847 19.7993"></polygon>
                </g>
            </g>
        </g>
    </g>
</svg>