<?xml version="1.0" encoding="UTF-8"?>
<svg width="22px" height="22px" viewBox="0 0 22 22" version="1.1" xmlns="http://www.w3.org/2000/svg" xmlns:xlink="http://www.w3.org/1999/xlink">
    <title>03. icon / numero verde</title>
    <g id="Mobile" stroke="none" stroke-width="1" fill="none" fill-rule="evenodd">
        <g id="Hai-bisogno-di-aiuto" transform="translate(-32.000000, -615.000000)">
            <g id="section-/-numero-verde" transform="translate(15.000000, 589.000000)">
                <g id="03.-icon-/-numero-verde" transform="translate(18.000000, 27.000000)">
                    <path d="M13.1034483,17.3793103 C13.1034483,18.8268966 11.9303448,20 10.4827586,20 C4.69310345,20 0,15.3068966 0,9.51724138 C0,8.06965517 1.17310345,6.89655172 2.62068966,6.89655172 C2.76862069,6.89655172 2.91413793,6.90931034 3.05586207,6.93310345 C3.07793103,6.93689655 3.10034483,6.94068966 3.12241379,6.94482759 C3.38310345,6.99413793 3.58517241,7.20103448 3.62965517,7.46275862 L4.29172414,11.3586207 C4.30724138,11.4503448 4.26034483,11.5413793 4.17689655,11.582069 C4.17689655,11.582069 3.54275862,11.8862069 3.23206897,12.0393103 C3.13655172,12.0865517 3.09068966,12.1989655 3.12827586,12.2989655 C3.5262069,13.3517241 4.14344828,14.2958621 4.9237931,15.0762069 C5.70137931,15.8541379 6.64241379,16.4703448 7.69103448,16.8682759 C7.79068966,16.9058621 7.90241379,16.8610345 7.95068966,16.7662069 C8.10758621,16.4575862 8.41724138,15.8210345 8.41724138,15.8210345 C8.45862069,15.7386207 8.54896552,15.6927586 8.64,15.7082759 L12.5372414,16.3703448 C12.7989655,16.4148276 13.0058621,16.6168966 13.0551724,16.8775862 C13.0593103,16.8996552 13.0631034,16.922069 13.0668966,16.9441379 C13.0906897,17.0858621 13.1034483,17.2313793 13.1034483,17.3793103 Z" id="Stroke-1" stroke="#2FCC40" stroke-width="1.2"></path>
                    <path d="M6.89655172,6.55172414 C6.89655172,2.93344828 9.83,3.55271368e-15 13.4482759,3.55271368e-15 C17.0665517,3.55271368e-15 20,2.93344828 20,6.55172414 C20,10.17 17.0665517,13.1034483 13.4482759,13.1034483 C12.4482759,13.1034483 11.5010345,12.8786207 10.6531034,12.477931 L9.05655172,13.0858621 C8.88655172,13.1506897 8.7037931,13.0286207 8.69206897,12.842069 L8.56965517,10.9234483 C7.52965517,9.7637931 6.89655172,8.23206897 6.89655172,6.55172414 Z" id="Stroke-3" stroke="#2FCC40" stroke-width="1.2" stroke-linejoin="round"></path>
                    <path d="M13.1034483,6.72413793 C13.1034483,6.43862069 13.3351724,6.20689655 13.6206897,6.20689655 C13.9062069,6.20689655 14.137931,6.43862069 14.137931,6.72413793 C14.137931,7.00965517 13.9062069,7.24137931 13.6206897,7.24137931 C13.3351724,7.24137931 13.1034483,7.00965517 13.1034483,6.72413793" id="Fill-5" fill="#2FCC40"></path>
                    <path d="M15.862069,6.72413793 C15.862069,6.43862069 16.0937931,6.20689655 16.3793103,6.20689655 C16.6648276,6.20689655 16.8965517,6.43862069 16.8965517,6.72413793 C16.8965517,7.00965517 16.6648276,7.24137931 16.3793103,7.24137931 C16.0937931,7.24137931 15.862069,7.00965517 15.862069,6.72413793" id="Fill-7" fill="#2FCC40"></path>
                    <path d="M10.3448276,6.72413793 C10.3448276,6.43862069 10.5765517,6.20689655 10.862069,6.20689655 C11.1475862,6.20689655 11.3793103,6.43862069 11.3793103,6.72413793 C11.3793103,7.00965517 11.1475862,7.24137931 10.862069,7.24137931 C10.5765517,7.24137931 10.3448276,7.00965517 10.3448276,6.72413793" id="Fill-9" fill="#2FCC40"></path>
                </g>
            </g>
        </g>
    </g>
</svg>