<?xml version="1.0" encoding="UTF-8"?>
<svg width="19px" height="29px" viewBox="0 0 19 29" version="1.1" xmlns="http://www.w3.org/2000/svg" xmlns:xlink="http://www.w3.org/1999/xlink">
    <title>Group 7</title>
    <g id="Desktop" stroke="none" stroke-width="1" fill="none" fill-rule="evenodd" stroke-linecap="round" stroke-linejoin="round">
        <g id="Login-/-step-01" transform="translate(-537.000000, -511.000000)" stroke="#151515" stroke-width="1.32">
            <g id="Group-4" transform="translate(513.000000, 305.000000)">
                <g id="Group-2" transform="translate(0.000000, 83.000000)">
                    <g id="Group" transform="translate(16.691755, 91.196193)">
                        <g id="Group-7" transform="translate(8.803904, 32.962479)">
                            <path d="M15.486068,26.3699834 C16.0096068,26.3699834 16.433955,25.9386877 16.433955,25.4071861 L16.433955,13.8547893 C16.433955,13.3232876 16.0096068,12.8919919 15.486068,12.8919919 L0.948473976,12.8919919 C0.424935123,12.8919919 0,13.3232876 0,13.8547893 L0,25.4071861 C0,25.9386877 0.424935123,26.3699834 0.948473976,26.3699834 L15.486068,26.3699834 Z" id="Stroke-1"></path>
                            <line x1="8.21721229" y1="18.4589884" x2="8.21721229" y2="20.8029869" id="Stroke-3"></line>
                            <path d="M14.0864819,12.8919919 L14.0864819,5.85999632 C14.0864819,2.62352035 11.4588099,0 8.21721229,0 C4.97561466,0 2.34794263,2.62352035 2.34794263,5.85999632 L2.34794263,12.8919919" id="Stroke-5"></path>
                        </g>
                    </g>
                </g>
            </g>
        </g>
    </g>
</svg>