<?xml version="1.0" encoding="UTF-8"?>
<svg width="14px" height="19px" viewBox="0 0 14 19" version="1.1" xmlns="http://www.w3.org/2000/svg" xmlns:xlink="http://www.w3.org/1999/xlink">
    <title>Group 5</title>
    <g id="Mobile" stroke="none" stroke-width="1" fill="none" fill-rule="evenodd" stroke-linecap="round" stroke-linejoin="round">
        <g id="Checkout-/-spedizione" transform="translate(-32.000000, -1030.000000)" stroke="#151515">
            <g id="section-/-giorni-consegna-copy" transform="translate(15.000000, 1003.000000)">
                <g id="Group-5" transform="translate(18.000000, 28.000000)">
                    <path d="M12.0954626,6.04769906 C12.0954626,2.48713148 9.01862772,-0.354661699 5.37834798,0.035982493 C2.70744457,0.32289168 0.492702203,2.42925827 0.0758512729,5.08323649 C-0.154003661,6.54699202 0.151741619,7.92421071 0.814280721,9.06939057 L0.810185918,9.07157447 L5.05786141,16.4285703 C5.49764324,17.1904766 6.59778027,17.1904766 7.03783508,16.4285703 L11.2852376,9.07157447 L11.2811428,9.06911759 C11.795996,8.17945342 12.0954626,7.14947401 12.0954626,6.04769906 Z" id="Stroke-1"></path>
                    <path d="M8.9983175,6.04769906 C8.9983175,7.6771576 7.67733409,8.99841399 6.04760256,8.99841399 C4.41814401,8.99841399 3.09716061,7.6771576 3.09716061,6.04769906 C3.09716061,4.41824051 4.41814401,3.09698412 6.04760256,3.09698412" id="Stroke-3"></path>
                </g>
            </g>
        </g>
    </g>
</svg>