<svg xmlns="http://www.w3.org/2000/svg" xmlns:xlink="http://www.w3.org/1999/xlink" version="1.1" id="Livello_1" x="0px" y="0px" viewBox="0 0 18.9 21.9" style="enable-background:new 0 0 18.9 21.9;" xml:space="preserve">
<style type="text/css">
	.st0{fill:#151515;}
</style>
<path class="st0" d="M17.8,5.2h-4.2V4.5c0-2.4-1.9-4.4-4.1-4.4c-2.2,0-4.1,2-4.1,4.4v0.6H1.1c-0.4,0-0.7,0.4-0.7,0.8v10.7  c0,1.6,0.4,2.8,1.2,3.6c1.5,1.5,4.2,1.5,7.2,1.5h1.8c2.9,0,5.3-0.1,6.7-1.5c0.8-0.8,1.2-2,1.2-3.6V5.9C18.5,5.5,18.2,5.2,17.8,5.2z   M6.8,5.2V4.5C6.8,3,8,1.7,9.4,1.7c1.4,0,2.5,1.3,2.5,2.9v0.6H6.8z M17,6.7v9.9c0,1.1-0.3,2-0.8,2.5c-1.2,1.1-3.5,1.1-6.3,1.1H8.8  c-2.8,0-5,0-6.2-1.1c-0.5-0.5-0.8-1.3-0.8-2.5V6.7H17z"/>
</svg>