<?xml version="1.0" encoding="UTF-8"?>
<svg width="11px" height="17px" viewBox="0 0 11 17" version="1.1" xmlns="http://www.w3.org/2000/svg" xmlns:xlink="http://www.w3.org/1999/xlink">
    <title>Fill 1</title>
    <g id="Mobile" stroke="none" stroke-width="1" fill="none" fill-rule="evenodd">
        <g id="Dashboard-/-aiuto" transform="translate(-24.000000, -256.000000)" stroke="#151515">
            <g id="label-aiuto-e-contatti-copy-3" transform="translate(0.000000, 241.000000)">
                <path d="M29.2683183,23.1656519 C29.6822731,23.499825 30.0150465,23.9228777 30.2344461,24.4036672 L30.2330464,24.404367 C30.3726643,24.7014487 30.4534957,25.0181258 30.4534957,25.361047 C30.4527959,26.751977 29.2532717,27.7670936 27.9337252,27.7670936 L25.0013997,27.7670936 L25,31 L28.8344181,31 C31.3324935,31 34.4649731,28.3843516 34.3634964,25.2858143 C34.3515991,24.9222479 34.3078592,24.6724053 34.2459234,24.3851214 C34.1941353,24.056547 33.9281965,23.239135 33.9281965,23.239135 C33.5681293,22.3671356 32.973966,21.638953 32.973966,21.638953 C31.8545734,20.1734901 29.1028064,18.8528938 29.1035062,17.3156974 C29.1035062,17.3156974 29.0723634,17.1134439 29.3669956,16 L25.6078102,16 C25.2473931,17.1984744 25.343621,17.9924417 25.343621,17.9924417 C25.4555952,19.721744 26.808734,20.9622087 26.808734,20.9622087 C27.4907271,21.7442788 28.4890475,22.4213731 29.2686682,23.165302 L29.2683183,23.1656519 Z" id="Fill-1"></path>
            </g>
        </g>
    </g>
</svg>