<svg xmlns="http://www.w3.org/2000/svg" width="28" height="17" viewBox="0 0 28 17"><g fill="none" fill-rule="evenodd" stroke="#151515" stroke-linecap="round" stroke-linejoin="round" transform="translate(1 1)"><path d="M5.57436576 2.36753616 5.57436576.778835931C5.57436576.348527877 5.92093753 0 6.34883049 0L16.5472251 0C16.9748788 0 17.3216898.348527877 17.3216898.778835931L17.3216898 11.3058691M7.88792965 12.7609549 6.66380659 12.7609549C5.92115279 12.7609549 5.57434184 12.4121865 5.57434184 11.982119L5.57434184 8.67531345"/><line x1="19.171" x2="12.341" y1="12.761" y2="12.761"/><path d="M17.3215941 2.10295323 21.6110476 2.10295323C22.0784053 2.10295323 22.5211274 2.31437904 22.8165147 2.67878189L25.0985307 5.49466585C25.6816515 6.21385036 26 7.11343231 26 8.04163734L26 11.9822393C26 12.4123068 25.6534282 12.7610752 25.2255353 12.7610752L23.6239862 12.7610752M12.3407431 12.7609068C12.3407431 13.9972307 11.3440802 15 10.114456 15 8.88459257 15 7.88792965 13.9972307 7.88792965 12.7609068M7.88792965 12.7609068C7.88792965 11.5241019 8.88459257 10.5220542 10.114456 10.5220542 11.3443193 10.5220542 12.3407431 11.5241019 12.3407431 12.7609068"/><path d="M23.624058,12.7609068 C23.624058,13.9972307 22.6276342,15 21.3977708,15 C20.1679075,15 19.1712445,13.9972307 19.1712445,12.7609068 C19.1712445,11.5241019 20.1679075,10.5220542 21.3977708,10.5220542 C22.6276342,10.5220542 23.624058,11.5241019 23.624058,12.7609068"/><line x1="3.573" x2="7.597" y1="8.675" y2="8.675"/><line x1="2.216" x2="6.924" y1="6.573" y2="6.573"/><line x1=".859" x2="6.251" y1="4.47" y2="4.47"/><line x2="5.578" y1="2.37" y2="2.368"/><polyline points="24.175 7.404 19.524 7.404 19.524 3.82"/></g></svg>